<?xml version="1.0" encoding="UTF-8" ?>
<!DOCTYPE svg PUBLIC "-//W3C//DTD SVG 1.1//EN" "http://www.w3.org/Graphics/SVG/1.1/DTD/svg11.dtd">
<svg width="300pt" height="300pt" viewBox="0 0 300 300" version="1.1" xmlns="http://www.w3.org/2000/svg">
<g id="#9e9ec4ff">
</g>
<g id="#2e296aff">
<path fill="#2e296a" opacity="1.00" d=" M 147.98 29.89 C 161.49 23.47 176.98 21.08 191.78 23.41 C 194.03 26.26 189.39 25.26 187.96 24.93 C 183.14 26.45 178.53 29.03 174.80 32.47 C 185.01 35.59 195.32 39.39 203.61 46.33 C 205.51 48.00 207.58 49.93 207.86 52.60 C 207.93 52.91 208.06 53.53 208.13 53.84 C 207.81 53.68 207.17 53.38 206.85 53.23 C 206.38 52.63 205.93 52.02 205.49 51.41 C 201.60 45.52 194.83 42.58 188.68 39.67 C 184.29 37.67 179.77 35.91 175.11 34.64 C 172.66 33.86 170.28 35.19 167.97 35.85 C 171.43 30.11 178.31 28.24 183.29 24.20 C 176.88 23.67 170.58 25.15 164.36 26.44 C 156.82 27.85 149.61 30.72 143.24 34.98 C 143.09 34.23 142.80 32.73 142.65 31.98 C 138.43 32.86 134.08 33.45 130.10 35.21 C 130.18 36.22 130.30 37.23 130.45 38.23 C 124.56 40.84 117.89 38.94 112.55 35.94 C 106.41 32.94 102.11 27.42 96.37 23.87 C 97.49 23.36 99.10 22.56 100.05 23.86 C 107.04 30.45 115.11 36.88 125.01 37.87 C 126.08 37.70 127.15 37.47 128.20 37.19 C 128.22 36.42 128.27 34.88 128.29 34.11 C 134.08 30.33 141.36 30.68 147.98 29.89 Z" />
</g>
<g id="#fffeffff">
<path fill="#fffeff" opacity="1.00" d=" M 96.37 25.38 C 96.37 25.00 96.37 24.25 96.37 23.87 C 102.11 27.42 106.41 32.94 112.55 35.94 C 109.27 36.02 105.97 35.83 102.74 35.19 C 99.56 32.62 99.01 28.33 96.37 25.38 Z" />
<path fill="#fffeff" opacity="1.00" d=" M 163.62 109.02 C 164.58 109.03 165.55 109.05 166.52 109.07 C 170.92 117.48 176.96 124.86 183.07 132.06 C 178.33 130.58 173.40 132.08 168.81 133.42 C 168.71 129.64 173.63 129.14 175.10 126.01 C 172.36 125.88 170.31 127.85 168.13 129.18 C 167.67 125.43 166.06 121.95 165.64 118.19 C 164.95 115.13 165.33 111.78 163.62 109.02 Z" />
<path fill="#fffeff" opacity="1.00" d=" M 172.63 161.32 C 169.40 157.88 169.81 153.00 170.74 148.74 C 170.60 152.24 170.00 156.67 173.49 158.82 C 173.21 159.65 172.92 160.49 172.63 161.32 Z" />
<path fill="#fffeff" opacity="1.00" d=" M 80.85 196.65 C 81.63 196.72 83.17 196.85 83.94 196.91 C 85.01 198.58 86.23 200.17 87.03 202.00 C 87.74 204.67 85.12 206.23 83.50 207.80 C 83.46 204.51 81.78 201.54 80.14 198.79 C 80.32 198.26 80.68 197.19 80.85 196.65 Z" />
</g>
<g id="#645677ff">
<path fill="#645677" opacity="1.00" d=" M 164.36 26.44 C 170.58 25.15 176.88 23.67 183.29 24.20 C 178.31 28.24 171.43 30.11 167.97 35.85 C 170.28 35.19 172.66 33.86 175.11 34.64 C 179.77 35.91 184.29 37.67 188.68 39.67 C 193.47 44.55 198.94 49.14 205.49 51.41 C 205.93 52.02 206.38 52.63 206.85 53.23 C 207.17 53.38 207.81 53.68 208.13 53.84 C 209.07 54.25 210.05 54.57 211.07 54.79 C 213.59 57.66 216.17 60.61 219.58 62.44 C 224.28 65.33 229.80 66.17 235.08 67.38 C 231.96 71.13 228.19 74.54 223.47 76.08 C 222.00 73.34 220.75 70.22 217.93 68.57 C 218.54 73.22 222.36 76.46 223.73 80.84 C 223.98 88.35 223.85 96.08 226.77 103.16 C 227.67 107.60 230.52 111.36 231.22 115.84 C 230.93 116.19 230.35 116.89 230.07 117.24 C 233.40 124.28 239.92 128.96 246.56 132.61 C 248.64 135.60 244.89 138.53 242.14 139.29 C 238.34 141.56 233.78 140.57 229.76 141.90 C 229.45 142.18 228.84 142.72 228.54 143.00 C 227.14 142.86 225.75 142.78 224.36 142.69 C 219.83 136.09 215.59 129.30 211.86 122.22 C 211.12 120.99 210.53 119.45 209.01 119.02 C 208.25 120.38 209.47 121.73 209.91 122.99 C 213.53 129.85 217.60 136.46 221.95 142.89 C 211.87 141.54 201.80 138.53 193.39 132.67 C 189.81 130.28 187.46 126.60 184.54 123.52 C 183.96 127.28 187.27 129.91 189.70 132.23 C 199.61 140.84 212.92 143.60 225.53 145.52 C 227.47 148.26 228.24 151.60 229.13 154.78 C 227.33 154.09 225.53 153.38 223.77 152.60 L 223.52 152.45 L 223.28 152.26 C 220.29 149.84 217.98 144.32 213.30 146.28 C 209.13 148.74 207.36 153.62 203.77 156.72 C 199.98 159.84 196.27 164.04 190.93 163.86 C 192.13 158.52 195.13 153.60 195.12 148.01 C 195.17 145.42 195.33 142.77 194.71 140.23 C 190.68 136.55 186.67 132.85 182.51 129.33 C 180.53 126.13 178.45 123.01 175.63 120.47 C 172.43 116.11 169.95 111.23 167.57 106.38 C 167.12 105.17 166.19 104.29 165.25 103.47 C 165.31 105.10 165.41 106.73 165.53 108.36 C 165.06 108.18 164.14 107.82 163.68 107.63 C 163.70 104.34 162.86 101.15 162.32 97.93 C 161.74 94.66 162.92 91.30 161.96 88.08 C 159.75 87.36 159.29 89.57 159.58 91.22 C 160.96 100.85 161.75 110.58 164.11 120.04 C 164.67 123.57 166.26 127.10 165.73 130.70 C 163.42 132.40 160.83 133.67 158.47 135.30 C 161.70 136.37 164.46 133.96 167.34 132.94 C 164.72 136.45 160.38 138.45 158.86 142.85 C 153.97 140.81 148.99 138.54 145.21 134.72 C 142.01 131.70 141.39 127.10 139.76 123.21 C 139.31 123.42 138.39 123.85 137.94 124.06 C 140.29 131.75 144.08 138.89 148.19 145.77 C 150.16 149.14 153.27 151.64 155.19 155.04 C 150.31 154.23 145.89 151.77 141.61 149.40 C 133.72 141.91 125.85 134.09 120.74 124.35 C 116.64 117.60 114.13 110.10 111.43 102.73 C 110.61 95.81 108.21 89.02 109.07 81.97 C 109.02 79.87 110.03 77.36 108.33 75.64 C 105.36 82.86 107.99 90.61 108.16 98.04 C 106.64 101.56 103.48 104.19 101.66 107.61 C 98.35 112.31 96.21 117.71 92.89 122.40 C 93.47 117.31 96.22 112.69 96.12 107.49 C 92.45 110.97 92.66 116.50 91.01 120.99 C 88.05 129.63 87.14 138.77 84.76 147.57 C 84.34 147.53 83.49 147.45 83.07 147.41 C 83.99 151.65 84.03 156.00 84.49 160.30 C 85.39 160.35 86.30 160.41 87.20 160.47 C 88.34 165.20 86.14 170.04 87.74 174.75 C 84.84 175.57 81.94 176.34 79.03 177.09 C 81.77 173.67 83.93 169.84 85.88 165.91 C 78.80 160.91 75.94 152.26 73.57 144.32 C 72.09 139.61 72.69 134.52 70.94 129.90 C 69.05 133.73 70.11 138.08 71.01 142.04 C 72.92 150.09 75.66 158.27 81.05 164.70 C 79.25 164.90 77.45 165.12 75.66 165.35 C 70.95 162.57 65.01 164.83 59.94 162.85 C 64.61 158.91 68.91 153.65 69.18 147.27 C 66.00 144.85 68.55 141.24 68.78 138.12 C 67.81 136.92 66.22 137.66 64.93 137.66 C 60.78 138.48 56.85 136.64 52.90 135.69 C 54.26 132.74 55.68 129.80 56.66 126.70 C 60.11 118.16 63.45 109.45 65.11 100.37 C 63.36 99.77 61.67 99.02 60.12 98.00 C 63.14 96.67 66.32 95.78 69.59 95.34 C 71.94 89.79 73.83 84.02 76.97 78.84 L 76.68 79.73 C 79.84 77.18 83.92 76.41 87.29 74.33 C 92.77 68.34 96.69 61.14 101.33 54.51 C 102.38 52.67 104.54 50.79 103.46 48.48 C 105.33 47.28 107.21 46.10 109.06 44.87 C 111.64 45.59 114.52 47.46 117.06 45.65 C 113.95 44.26 110.59 43.26 107.91 41.08 C 105.83 39.45 104.40 37.20 102.74 35.19 C 105.97 35.83 109.27 36.02 112.55 35.94 C 117.89 38.94 124.56 40.84 130.45 38.23 C 130.30 37.23 130.18 36.22 130.10 35.21 C 134.08 33.45 138.43 32.86 142.65 31.98 C 142.80 32.73 143.09 34.23 143.24 34.98 C 149.61 30.72 156.82 27.85 164.36 26.44 M 200.60 58.49 C 202.96 63.00 205.26 67.53 207.51 72.09 C 207.95 73.78 209.74 74.02 211.20 74.21 C 210.48 69.88 208.36 65.80 205.79 62.29 C 204.25 60.82 203.21 57.95 200.60 58.49 M 186.79 62.71 C 186.95 67.37 190.30 70.81 192.63 74.54 C 194.49 77.11 197.12 79.38 200.49 79.38 C 199.77 77.32 199.30 75.19 199.16 73.02 C 201.72 74.11 204.29 75.73 207.20 75.31 C 206.72 71.35 203.18 68.92 200.26 66.70 C 196.54 63.42 191.27 64.08 186.79 62.71 M 102.12 64.17 C 98.90 65.64 98.44 69.72 96.93 72.59 C 97.95 73.41 98.97 74.23 99.99 75.06 C 103.26 73.36 105.43 69.75 104.98 66.04 C 104.84 64.79 103.44 63.30 102.12 64.17 M 131.19 68.94 C 129.56 70.71 127.69 72.52 127.23 74.99 C 126.35 78.86 128.80 82.39 131.20 85.17 C 132.60 85.66 134.51 85.91 135.47 84.47 C 137.18 82.32 139.27 79.99 138.97 77.03 C 139.62 72.62 135.83 68.01 131.19 68.94 M 146.27 80.01 C 147.19 78.26 147.65 76.35 147.77 74.39 C 146.83 73.76 145.90 73.13 144.97 72.50 C 142.37 74.63 144.03 78.34 146.27 80.01 Z" />
</g>
<g id="#312c6bff">
<path fill="#312c6b" opacity="1.00" d=" M 96.37 25.38 C 99.01 28.33 99.56 32.62 102.74 35.19 C 104.40 37.20 105.83 39.45 107.91 41.08 C 110.59 43.26 113.95 44.26 117.06 45.65 C 114.52 47.46 111.64 45.59 109.06 44.87 C 107.21 46.10 105.33 47.28 103.46 48.48 C 92.33 56.22 83.79 67.24 76.97 78.84 C 73.83 84.02 71.94 89.79 69.59 95.34 C 66.32 95.78 63.14 96.67 60.12 98.00 C 61.67 99.02 63.36 99.77 65.11 100.37 C 63.45 109.45 60.11 118.16 56.66 126.70 C 54.81 130.08 52.74 133.90 48.61 134.77 C 50.05 135.05 51.48 135.33 52.90 135.69 C 56.85 136.64 60.78 138.48 64.93 137.66 C 66.22 137.66 67.81 136.92 68.78 138.12 C 68.55 141.24 66.00 144.85 69.18 147.27 C 68.91 153.65 64.61 158.91 59.94 162.85 C 65.01 164.83 70.95 162.57 75.66 165.35 C 68.92 166.93 61.75 165.64 55.27 163.53 C 55.25 163.25 55.22 162.71 55.20 162.43 C 59.03 160.83 62.66 158.37 64.73 154.67 C 66.39 149.87 62.95 144.39 66.11 139.95 C 59.31 139.85 52.49 138.47 46.36 135.47 C 45.90 134.38 45.44 133.29 44.97 132.20 C 47.45 132.04 50.60 132.71 52.22 130.29 C 54.90 125.97 57.13 121.30 58.40 116.36 C 59.63 111.88 61.87 107.64 62.22 102.94 C 61.17 100.22 57.43 99.33 56.74 96.24 C 61.04 95.39 66.32 94.92 68.98 90.94 C 73.41 80.42 78.97 70.20 86.66 61.68 C 92.49 54.23 99.71 47.74 108.22 43.51 C 103.33 40.57 100.01 35.74 97.20 30.91 C 96.08 29.27 96.14 27.26 96.37 25.38 Z" />
</g>
<g id="#fffffdff">
<path fill="#fffffd" opacity="1.00" d=" M 188.68 39.67 C 194.83 42.58 201.60 45.52 205.49 51.41 C 198.94 49.14 193.47 44.55 188.68 39.67 Z" />
<path fill="#fffffd" opacity="1.00" d=" M 102.12 64.17 C 103.44 63.30 104.84 64.79 104.98 66.04 C 105.43 69.75 103.26 73.36 99.99 75.06 C 98.97 74.23 97.95 73.41 96.93 72.59 C 98.44 69.72 98.90 65.64 102.12 64.17 Z" />
</g>
<g id="#fffffaff">
<path fill="#fffffa" opacity="1.00" d=" M 76.97 78.84 C 83.79 67.24 92.33 56.22 103.46 48.48 C 104.54 50.79 102.38 52.67 101.33 54.51 C 96.69 61.14 92.77 68.34 87.29 74.33 C 83.92 76.41 79.84 77.18 76.68 79.73 L 76.97 78.84 Z" />
</g>
<g id="#f8f6ffff">
<path fill="#f8f6ff" opacity="1.00" d=" M 207.86 52.60 C 209.03 52.02 209.99 52.30 210.76 53.46 C 210.84 53.79 211.00 54.45 211.07 54.79 C 210.05 54.57 209.07 54.25 208.13 53.84 C 208.06 53.53 207.93 52.91 207.86 52.60 Z" />
</g>
<g id="#2d2967ff">
<path fill="#2d2967" opacity="1.00" d=" M 210.76 53.46 C 212.86 52.76 213.38 55.31 214.67 56.36 C 221.01 61.99 229.40 65.48 237.95 65.36 C 238.13 67.98 235.81 69.54 234.25 71.29 C 231.52 74.13 228.32 76.55 224.56 77.83 C 229.09 87.37 232.06 97.57 233.85 107.95 C 234.35 112.27 233.01 116.94 234.86 121.02 C 237.83 125.13 242.29 127.92 246.61 130.41 C 248.65 131.67 253.01 130.45 252.94 133.84 C 251.65 133.70 250.38 133.56 249.10 133.41 C 248.98 134.77 248.85 136.15 248.73 137.52 C 243.66 141.67 236.07 144.81 229.76 141.90 C 233.78 140.57 238.34 141.56 242.14 139.29 C 244.89 138.53 248.64 135.60 246.56 132.61 C 239.92 128.96 233.40 124.28 230.07 117.24 C 230.35 116.89 230.93 116.19 231.22 115.84 L 231.59 115.37 C 232.23 112.74 232.17 110.00 231.62 107.36 C 230.38 98.18 227.46 89.29 223.73 80.84 C 222.36 76.46 218.54 73.22 217.93 68.57 C 220.75 70.22 222.00 73.34 223.47 76.08 C 228.19 74.54 231.96 71.13 235.08 67.38 C 229.80 66.17 224.28 65.33 219.58 62.44 C 216.17 60.61 213.59 57.66 211.07 54.79 C 211.00 54.45 210.84 53.79 210.76 53.46 Z" />
</g>
<g id="#faf8f7ff">
<path fill="#faf8f7" opacity="1.00" d=" M 200.60 58.49 C 203.21 57.95 204.25 60.82 205.79 62.29 C 208.36 65.80 210.48 69.88 211.20 74.21 C 209.74 74.02 207.95 73.78 207.51 72.09 C 205.26 67.53 202.96 63.00 200.60 58.49 Z" />
</g>
<g id="#ffffffff">
<path fill="#ffffff" opacity="1.00" d=" M 186.79 62.71 C 191.27 64.08 196.54 63.42 200.26 66.70 C 203.18 68.92 206.72 71.35 207.20 75.31 C 204.29 75.73 201.72 74.11 199.16 73.02 C 199.30 75.19 199.77 77.32 200.49 79.38 C 197.12 79.38 194.49 77.11 192.63 74.54 C 190.30 70.81 186.95 67.37 186.79 62.71 Z" />
<path fill="#ffffff" opacity="1.00" d=" M 226.77 103.16 C 223.85 96.08 223.98 88.35 223.73 80.84 C 227.46 89.29 230.38 98.18 231.62 107.36 C 232.17 110.00 232.23 112.74 231.59 115.37 L 231.22 115.84 C 230.52 111.36 227.67 107.60 226.77 103.16 Z" />
<path fill="#ffffff" opacity="1.00" d=" M 108.65 102.61 C 108.73 102.20 108.88 101.39 108.96 100.98 C 109.55 102.41 110.14 103.85 110.60 105.34 C 114.55 119.65 122.14 132.94 132.58 143.51 C 139.25 149.86 147.09 155.54 156.22 157.57 C 159.23 158.18 164.21 158.51 164.50 154.28 C 163.17 154.81 161.85 155.35 160.53 155.92 C 153.85 152.23 150.14 145.16 146.49 138.77 C 152.50 142.59 159.04 145.86 166.13 147.04 C 163.95 153.46 166.18 160.65 170.22 165.84 C 170.86 166.62 171.52 167.37 172.18 168.14 C 174.37 168.07 177.08 168.70 178.67 166.75 C 182.75 162.16 182.49 155.48 181.50 149.81 C 180.27 145.81 178.40 141.05 173.91 139.87 C 173.45 139.00 172.99 138.12 172.55 137.23 C 175.92 136.47 179.43 135.28 182.89 136.23 C 186.68 137.26 190.94 139.57 191.35 143.94 C 191.70 143.04 192.11 142.16 192.56 141.30 C 193.67 146.88 192.63 152.58 190.95 157.92 C 189.92 160.70 188.65 163.83 185.56 164.82 C 185.38 165.58 185.03 167.11 184.85 167.87 C 187.84 166.70 190.87 165.69 194.01 165.00 C 200.23 163.01 205.22 158.48 209.60 153.79 C 211.16 151.50 212.48 148.96 214.99 147.54 C 220.65 148.86 222.04 155.01 223.08 159.90 C 222.42 163.97 221.10 168.16 217.66 170.75 C 213.42 174.22 205.94 176.14 201.99 171.27 C 200.96 171.55 199.93 171.84 198.91 172.14 C 197.86 175.04 195.66 177.28 193.44 179.34 C 185.58 186.50 175.87 191.29 165.93 194.86 C 164.46 195.53 162.41 195.82 161.95 197.70 L 163.90 197.32 C 163.76 197.53 163.47 197.95 163.32 198.16 C 159.73 198.42 158.32 201.97 156.21 204.31 C 152.91 208.07 149.66 211.88 146.19 215.49 L 145.16 214.75 C 140.38 210.74 136.33 205.92 133.90 200.12 C 135.15 199.86 137.66 199.34 138.91 199.08 C 133.61 197.79 128.17 197.35 122.82 196.37 C 117.26 195.51 112.14 193.08 106.99 190.93 C 100.57 187.48 93.67 183.31 90.64 176.35 C 87.19 170.07 90.38 162.57 88.01 155.99 C 86.13 151.78 87.98 147.35 88.52 143.07 C 90.16 130.13 97.36 118.93 103.97 108.01 C 105.14 105.91 106.55 103.88 108.65 102.61 M 101.00 129.07 C 101.22 129.50 101.65 130.35 101.87 130.77 C 106.06 133.23 110.46 135.42 115.10 136.90 C 116.34 137.22 117.01 136.73 117.11 135.44 C 111.38 134.30 106.73 130.25 101.00 129.07 M 89.77 142.18 C 90.12 143.22 90.39 144.34 91.23 145.11 C 91.80 143.77 92.79 142.64 94.27 142.36 C 99.43 141.38 105.01 141.92 109.55 144.72 C 106.13 143.96 102.27 145.57 101.15 149.03 C 100.23 153.39 102.37 157.46 103.69 161.48 C 104.62 165.97 108.23 169.41 112.03 171.66 C 114.18 172.77 115.12 170.45 116.19 169.10 C 120.91 163.72 118.83 155.56 115.09 150.22 L 115.82 150.00 C 116.10 151.66 119.71 151.03 117.85 149.44 C 116.05 147.10 113.73 145.25 111.70 143.12 C 113.11 143.90 114.43 144.91 116.06 145.17 C 115.05 141.05 110.00 139.97 106.58 138.45 C 100.95 137.74 93.33 136.54 89.77 142.18 M 204.92 161.20 C 204.95 162.00 205.00 163.58 205.03 164.37 C 206.82 164.68 207.58 163.72 207.32 161.50 C 208.97 162.14 210.52 163.18 211.06 164.97 C 210.35 165.96 209.58 166.89 208.82 167.83 C 209.58 167.91 211.11 168.05 211.87 168.13 C 212.30 167.09 212.75 166.06 213.20 165.03 C 212.52 162.98 210.89 161.39 210.23 159.36 C 212.37 159.01 214.55 159.01 216.72 158.95 C 216.45 160.02 216.19 161.09 215.95 162.17 C 217.04 161.75 218.14 161.33 219.24 160.90 C 218.99 159.58 219.25 157.85 217.67 157.33 C 213.06 155.84 208.04 157.61 204.92 161.20 M 177.98 172.15 C 177.94 174.09 177.41 176.58 179.82 177.24 C 179.93 175.85 180.02 174.46 180.11 173.07 C 179.57 172.84 178.51 172.38 177.98 172.15 M 172.91 173.79 C 172.77 175.39 173.44 176.86 174.07 178.28 C 174.89 178.20 176.52 178.03 177.33 177.94 C 176.23 176.42 175.17 173.16 172.91 173.79 M 103.95 181.45 C 106.57 180.41 107.83 176.52 106.15 174.18 C 104.37 176.21 103.68 178.79 103.95 181.45 M 108.95 181.19 C 112.06 181.49 110.94 177.79 110.95 175.86 C 107.98 174.10 109.15 179.61 108.95 181.19 M 138.00 181.80 C 136.26 182.63 135.78 184.60 134.97 186.17 C 136.78 191.46 143.28 195.36 148.57 192.55 L 148.92 192.78 C 149.16 192.52 149.65 192.01 149.90 191.76 L 149.95 193.12 C 154.45 192.04 155.77 186.99 156.01 182.95 C 155.65 180.67 155.36 177.55 152.87 176.60 C 147.40 176.30 142.52 179.11 138.00 181.80 Z" />
<path fill="#ffffff" opacity="1.00" d=" M 179.70 158.43 C 179.60 161.10 178.48 163.66 176.62 165.58 C 175.15 166.62 173.43 165.53 171.99 165.03 C 173.81 164.39 175.99 164.20 177.17 162.46 C 178.09 161.17 178.88 159.79 179.70 158.43 Z" />
<path fill="#ffffff" opacity="1.00" d=" M 65.87 180.70 C 70.28 181.46 72.30 186.14 74.36 189.60 C 75.90 190.41 76.66 188.56 77.46 187.61 C 78.68 185.33 81.05 184.16 83.09 182.74 C 83.61 183.08 84.66 183.76 85.18 184.10 C 85.57 189.42 82.05 193.95 78.42 197.43 C 78.32 198.54 78.21 199.66 78.11 200.78 C 78.61 200.76 79.60 200.71 80.10 200.69 C 80.38 201.82 80.78 202.91 81.30 203.96 C 81.07 205.35 82.02 207.51 80.43 208.32 C 77.79 209.14 75.10 211.13 72.32 209.62 C 68.61 208.87 67.03 205.21 65.68 202.10 C 66.56 200.42 66.91 197.64 69.52 198.30 C 72.20 198.78 74.88 199.25 77.52 199.91 C 77.39 199.28 77.14 198.01 77.01 197.38 C 75.03 196.96 73.06 196.52 71.10 196.01 C 70.41 196.43 69.03 197.28 68.34 197.70 L 69.02 196.20 L 70.51 195.46 C 67.76 191.06 65.13 186.06 65.87 180.70 Z" />
</g>
<g id="#fffffeff">
<path fill="#fffffe" opacity="1.00" d=" M 131.19 68.94 C 135.83 68.01 139.62 72.62 138.97 77.03 C 139.27 79.99 137.18 82.32 135.47 84.47 C 134.51 85.91 132.60 85.66 131.20 85.17 C 128.80 82.39 126.35 78.86 127.23 74.99 C 127.69 72.52 129.56 70.71 131.19 68.94 Z" />
</g>
<g id="#fffedcff">
<path fill="#fffedc" opacity="1.00" d=" M 146.27 80.01 C 144.03 78.34 142.37 74.63 144.97 72.50 C 145.90 73.13 146.83 73.76 147.77 74.39 C 147.65 76.35 147.19 78.26 146.27 80.01 Z" />
</g>
<g id="#302b68ff">
<path fill="#302b68" opacity="1.00" d=" M 108.33 75.64 C 110.03 77.36 109.02 79.87 109.07 81.97 C 108.21 89.02 110.61 95.81 111.43 102.73 C 114.13 110.10 116.64 117.60 120.74 124.35 C 125.85 134.09 133.72 141.91 141.61 149.40 C 145.89 151.77 150.31 154.23 155.19 155.04 C 153.27 151.64 150.16 149.14 148.19 145.77 C 144.08 138.89 140.29 131.75 137.94 124.06 C 138.39 123.85 139.31 123.42 139.76 123.21 C 141.39 127.10 142.01 131.70 145.21 134.72 C 148.99 138.54 153.97 140.81 158.86 142.85 C 160.38 138.45 164.72 136.45 167.34 132.94 C 164.46 133.96 161.70 136.37 158.47 135.30 C 160.83 133.67 163.42 132.40 165.73 130.70 C 166.26 127.10 164.67 123.57 164.11 120.04 C 161.75 110.58 160.96 100.85 159.58 91.22 C 159.29 89.57 159.75 87.36 161.96 88.08 C 162.92 91.30 161.74 94.66 162.32 97.93 C 162.86 101.15 163.70 104.34 163.68 107.63 C 164.14 107.82 165.06 108.18 165.53 108.36 C 165.41 106.73 165.31 105.10 165.25 103.47 C 166.19 104.29 167.12 105.17 167.57 106.38 C 169.95 111.23 172.43 116.11 175.63 120.47 C 178.45 123.01 180.53 126.13 182.51 129.33 C 186.67 132.85 190.68 136.55 194.71 140.23 C 195.33 142.77 195.17 145.42 195.12 148.01 C 195.13 153.60 192.13 158.52 190.93 163.86 C 196.27 164.04 199.98 159.84 203.77 156.72 C 207.36 153.62 209.13 148.74 213.30 146.28 C 217.98 144.32 220.29 149.84 223.28 152.26 L 223.49 152.48 L 223.77 152.60 C 225.53 153.38 227.33 154.09 229.13 154.78 C 228.24 151.60 227.47 148.26 225.53 145.52 C 212.92 143.60 199.61 140.84 189.70 132.23 C 187.27 129.91 183.96 127.28 184.54 123.52 C 187.46 126.60 189.81 130.28 193.39 132.67 C 201.80 138.53 211.87 141.54 221.95 142.89 C 217.60 136.46 213.53 129.85 209.91 122.99 C 209.47 121.73 208.25 120.38 209.01 119.02 C 210.53 119.45 211.12 120.99 211.86 122.22 C 215.59 129.30 219.83 136.09 224.36 142.69 C 225.75 142.78 227.14 142.86 228.54 143.00 C 230.89 143.68 229.87 145.85 228.03 146.31 C 228.95 147.89 229.84 149.76 231.91 149.94 C 230.69 154.38 233.15 158.62 232.89 163.05 C 233.14 164.77 231.34 164.80 230.18 165.14 C 229.82 164.29 229.46 163.45 229.10 162.62 C 230.54 162.30 231.23 161.43 231.15 160.00 C 228.81 158.05 226.85 155.31 223.77 154.56 C 226.13 161.28 223.72 169.62 217.44 173.35 C 213.55 176.15 207.81 177.06 203.56 174.95 L 202.82 175.01 C 204.38 178.06 206.27 180.93 208.32 183.67 C 209.71 185.60 211.79 187.05 212.54 189.40 C 209.26 188.71 205.99 187.77 202.59 187.89 C 203.20 190.30 204.10 192.62 205.18 194.85 C 207.20 195.26 209.10 196.06 210.89 197.07 C 212.12 205.28 206.78 212.32 202.01 218.41 C 205.72 226.88 210.35 234.99 212.91 243.93 C 214.92 248.83 216.19 253.98 217.77 259.03 C 219.16 263.56 218.91 268.48 220.97 272.83 C 220.46 273.12 219.45 273.70 218.94 273.99 C 214.95 255.80 209.53 237.79 200.92 221.22 C 200.12 219.29 198.45 218.07 196.80 216.93 C 198.20 216.72 199.60 216.51 201.01 216.34 C 204.67 211.53 208.68 206.21 209.15 199.98 C 209.39 196.80 205.74 196.91 203.56 196.66 C 202.12 192.36 200.10 188.29 198.47 184.07 C 194.94 183.88 191.18 184.19 188.09 186.06 C 180.68 191.00 172.56 195.11 163.90 197.32 L 161.95 197.70 C 162.41 195.82 164.46 195.53 165.93 194.86 C 175.87 191.29 185.58 186.50 193.44 179.34 C 195.66 177.28 197.86 175.04 198.91 172.14 C 199.93 171.84 200.96 171.55 201.99 171.27 C 205.94 176.14 213.42 174.22 217.66 170.75 C 221.10 168.16 222.42 163.97 223.08 159.90 C 222.04 155.01 220.65 148.86 214.99 147.54 C 212.48 148.96 211.16 151.50 209.60 153.79 C 205.22 158.48 200.23 163.01 194.01 165.00 C 190.87 165.69 187.84 166.70 184.85 167.87 C 185.03 167.11 185.38 165.58 185.56 164.82 C 188.65 163.83 189.92 160.70 190.95 157.92 C 192.63 152.58 193.67 146.88 192.56 141.30 C 192.11 142.16 191.70 143.04 191.35 143.94 C 190.94 139.57 186.68 137.26 182.89 136.23 C 179.43 135.28 175.92 136.47 172.55 137.23 C 172.99 138.12 173.45 139.00 173.91 139.87 C 173.83 140.51 173.67 141.77 173.59 142.40 C 173.43 142.87 173.11 143.79 172.95 144.26 C 173.43 144.47 174.40 144.89 174.89 145.10 C 172.79 147.85 171.09 145.39 170.18 143.30 C 170.00 144.01 169.82 144.73 169.65 145.44 C 170.27 145.90 171.50 146.81 172.12 147.26 C 171.11 147.29 169.08 147.35 168.07 147.39 C 167.58 147.30 166.62 147.13 166.13 147.04 C 159.04 145.86 152.50 142.59 146.49 138.77 C 150.14 145.16 153.85 152.23 160.53 155.92 C 161.85 155.35 163.17 154.81 164.50 154.28 C 164.21 158.51 159.23 158.18 156.22 157.57 C 147.09 155.54 139.25 149.86 132.58 143.51 C 122.14 132.94 114.55 119.65 110.60 105.34 C 110.14 103.85 109.55 102.41 108.96 100.98 C 108.88 101.39 108.73 102.20 108.65 102.61 C 106.55 103.88 105.14 105.91 103.97 108.01 C 97.36 118.93 90.16 130.13 88.52 143.07 C 87.98 147.35 86.13 151.78 88.01 155.99 C 90.38 162.57 87.19 170.07 90.64 176.35 C 93.67 183.31 100.57 187.48 106.99 190.93 C 112.14 193.08 117.26 195.51 122.82 196.37 C 128.17 197.35 133.61 197.79 138.91 199.08 C 137.66 199.34 135.15 199.86 133.90 200.12 C 136.33 205.92 140.38 210.74 145.16 214.75 C 143.66 214.75 142.16 214.81 140.66 214.83 C 138.99 211.78 136.34 209.39 134.87 206.23 C 133.85 203.97 132.54 201.86 130.98 199.94 C 129.61 199.97 128.24 199.99 126.87 200.02 C 115.91 196.70 104.53 193.43 95.46 186.09 C 92.86 190.16 91.52 195.61 93.99 200.05 C 95.58 202.80 96.31 206.20 98.87 208.28 C 102.79 211.57 106.42 215.30 111.07 217.60 C 110.40 217.84 109.06 218.33 108.39 218.57 C 107.13 219.52 106.79 221.02 106.54 222.49 C 106.12 223.80 105.65 225.09 105.23 226.41 C 104.89 225.92 104.21 224.94 103.88 224.44 C 104.34 221.91 105.15 219.46 106.13 217.08 C 103.34 214.83 100.56 212.56 97.88 210.19 C 95.27 208.01 94.10 204.71 92.60 201.77 C 91.93 202.53 91.27 203.30 90.60 204.08 C 91.33 204.55 92.06 205.03 92.79 205.51 C 92.57 206.00 92.14 206.99 91.93 207.48 C 96.97 212.78 101.65 219.67 100.82 227.35 C 98.66 226.61 99.26 224.05 98.64 222.32 C 97.37 217.98 94.95 214.07 92.16 210.54 C 86.42 217.16 76.72 220.45 68.24 217.91 C 67.42 222.61 65.44 227.34 66.41 232.17 C 66.96 234.97 67.67 237.75 68.57 240.46 C 69.62 243.73 72.25 246.06 74.27 248.72 C 79.77 252.30 86.44 252.82 92.80 252.09 C 92.75 251.53 92.65 250.41 92.61 249.85 C 94.27 250.11 95.94 250.38 97.61 250.68 C 97.99 249.31 98.38 247.94 98.74 246.58 C 98.94 250.70 97.49 254.75 98.24 258.88 C 98.06 261.13 97.72 263.38 97.03 265.55 C 96.60 265.29 95.74 264.75 95.31 264.49 C 95.54 260.59 96.23 256.71 97.20 252.93 C 87.87 256.24 75.59 255.24 69.49 246.55 C 63.13 238.13 63.73 226.80 66.25 217.10 C 64.33 212.96 66.46 208.40 64.59 204.28 C 63.59 201.14 64.43 195.93 68.55 195.75 C 64.96 191.39 63.62 185.69 64.04 180.13 C 66.41 177.45 69.57 179.82 71.60 181.65 C 73.03 183.38 73.96 185.50 75.55 187.12 C 77.49 183.07 82.35 179.34 86.80 182.12 C 86.70 185.25 87.72 188.86 85.59 191.54 C 84.95 192.56 84.29 193.57 83.65 194.59 C 86.67 196.51 88.19 199.74 89.49 202.94 C 90.70 200.12 91.40 197.12 91.07 194.04 C 90.53 190.51 92.55 187.48 93.91 184.41 C 91.68 182.07 89.92 179.35 88.35 176.54 C 84.30 177.47 80.14 178.68 75.94 178.11 C 78.13 174.21 82.69 171.00 82.11 166.07 C 81.84 165.73 81.31 165.04 81.05 164.70 C 75.66 158.27 72.92 150.09 71.01 142.04 C 70.11 138.08 69.05 133.73 70.94 129.90 C 72.69 134.52 72.09 139.61 73.57 144.32 C 75.94 152.26 78.80 160.91 85.88 165.91 C 83.93 169.84 81.77 173.67 79.03 177.09 C 81.94 176.34 84.84 175.57 87.74 174.75 C 86.14 170.04 88.34 165.20 87.20 160.47 C 86.30 160.41 85.39 160.35 84.49 160.30 C 84.03 156.00 83.99 151.65 83.07 147.41 C 83.49 147.45 84.34 147.53 84.76 147.57 C 87.14 138.77 88.05 129.63 91.01 120.99 C 92.66 116.50 92.45 110.97 96.12 107.49 C 96.22 112.69 93.47 117.31 92.89 122.40 C 96.21 117.71 98.35 112.31 101.66 107.61 C 103.48 104.19 106.64 101.56 108.16 98.04 C 107.99 90.61 105.36 82.86 108.33 75.64 M 163.62 109.02 C 165.33 111.78 164.95 115.13 165.64 118.19 C 166.06 121.95 167.67 125.43 168.13 129.18 C 170.31 127.85 172.36 125.88 175.10 126.01 C 173.63 129.14 168.71 129.64 168.81 133.42 C 173.40 132.08 178.33 130.58 183.07 132.06 C 176.96 124.86 170.92 117.48 166.52 109.07 C 165.55 109.05 164.58 109.03 163.62 109.02 M 172.28 134.24 C 171.71 134.32 168.97 135.37 170.65 135.87 C 172.30 135.25 174.29 135.65 175.79 134.70 C 175.79 133.02 173.21 133.86 172.28 134.24 M 183.34 134.07 C 183.46 137.35 186.42 132.63 183.34 134.07 M 170.19 138.18 C 168.52 141.12 173.47 138.52 170.19 138.18 M 160.84 143.75 C 162.50 144.27 164.15 145.08 165.94 144.99 C 168.08 143.78 169.09 141.21 169.07 138.82 C 166.14 140.11 163.28 141.64 160.84 143.75 M 200.36 174.93 C 198.10 177.57 195.88 180.35 192.73 181.98 C 194.83 181.98 196.94 181.93 199.04 182.17 C 200.07 183.23 200.60 184.66 201.30 185.94 C 203.33 186.07 205.36 186.07 207.39 186.00 C 204.81 182.46 202.65 178.65 200.36 174.93 M 65.87 180.70 C 65.13 186.06 67.76 191.06 70.51 195.46 L 69.02 196.20 L 68.34 197.70 L 69.52 198.30 C 66.91 197.64 66.56 200.42 65.68 202.10 C 67.03 205.21 68.61 208.87 72.32 209.62 C 75.10 211.13 77.79 209.14 80.43 208.32 C 82.02 207.51 81.07 205.35 81.30 203.96 C 80.78 202.91 80.38 201.82 80.10 200.69 C 79.60 200.71 78.61 200.76 78.11 200.78 C 78.21 199.66 78.32 198.54 78.42 197.43 C 82.05 193.95 85.57 189.42 85.18 184.10 C 84.66 183.76 83.61 183.08 83.09 182.74 C 81.05 184.16 78.68 185.33 77.46 187.61 C 76.66 188.56 75.90 190.41 74.36 189.60 C 72.30 186.14 70.28 181.46 65.87 180.70 M 80.85 196.65 C 80.68 197.19 80.32 198.26 80.14 198.79 C 81.78 201.54 83.46 204.51 83.50 207.80 C 85.12 206.23 87.74 204.67 87.03 202.00 C 86.23 200.17 85.01 198.58 83.94 196.91 C 83.17 196.85 81.63 196.72 80.85 196.65 M 79.53 211.58 C 75.56 212.39 71.16 212.25 67.71 209.87 C 67.84 211.91 66.88 214.76 69.19 215.91 C 75.57 217.00 82.86 216.31 87.90 211.88 C 89.62 210.48 88.47 208.05 88.93 206.17 C 86.41 208.88 82.57 209.60 79.53 211.58 Z" />
</g>
<g id="#fffcffff">
<path fill="#fffcff" opacity="1.00" d=" M 56.66 126.70 C 55.68 129.80 54.26 132.74 52.90 135.69 C 51.48 135.33 50.05 135.05 48.61 134.77 C 52.74 133.90 54.81 130.08 56.66 126.70 Z" />
<path fill="#fffcff" opacity="1.00" d=" M 172.28 134.24 C 173.21 133.86 175.79 133.02 175.79 134.70 C 174.29 135.65 172.30 135.25 170.65 135.87 C 168.97 135.37 171.71 134.32 172.28 134.24 Z" />
<path fill="#fffcff" opacity="1.00" d=" M 172.95 144.26 C 173.11 143.79 173.43 142.87 173.59 142.40 C 175.45 142.87 176.58 144.39 177.27 146.08 C 176.48 145.74 175.69 145.41 174.89 145.10 C 174.40 144.89 173.43 144.47 172.95 144.26 Z" />
<path fill="#fffcff" opacity="1.00" d=" M 104.06 148.73 C 103.54 147.50 105.60 146.28 106.54 147.12 C 107.04 148.36 105.01 149.43 104.06 148.73 Z" />
<path fill="#fffcff" opacity="1.00" d=" M 173.11 155.02 C 173.08 152.32 171.98 149.03 174.62 147.19 C 175.21 147.72 176.39 148.80 176.98 149.34 C 176.98 151.23 176.98 153.12 176.97 155.01 C 175.68 155.01 174.39 155.02 173.11 155.02 Z" />
<path fill="#fffcff" opacity="1.00" d=" M 108.06 152.15 C 108.69 152.14 109.96 152.13 110.60 152.12 C 111.38 152.88 112.17 153.64 112.97 154.40 C 113.01 156.02 113.05 157.63 113.09 159.26 C 111.68 159.50 109.44 159.95 108.71 158.28 C 107.57 156.44 107.84 154.19 108.06 152.15 Z" />
<path fill="#fffcff" opacity="1.00" d=" M 107.71 159.42 C 105.79 158.14 104.55 154.38 106.62 152.71 C 106.98 154.94 107.31 157.18 107.71 159.42 Z" />
<path fill="#fffcff" opacity="1.00" d=" M 108.36 164.38 C 109.49 163.97 112.16 164.29 111.92 165.91 C 110.76 166.80 108.53 165.72 108.36 164.38 Z" />
<path fill="#fffcff" opacity="1.00" d=" M 123.67 222.94 C 124.56 222.96 126.34 223.00 127.23 223.02 C 126.66 224.40 125.80 225.64 125.11 226.96 C 124.70 233.30 123.73 239.60 123.92 245.97 C 124.27 255.01 122.29 264.00 123.20 273.05 C 122.54 273.00 121.24 272.90 120.58 272.85 C 120.37 271.43 120.92 270.14 121.53 268.90 C 121.45 266.59 121.69 264.30 121.94 262.01 C 122.29 256.32 121.27 250.47 122.88 244.91 C 123.34 237.61 122.41 230.18 123.67 222.94 Z" />
</g>
<g id="#3c3564ff">
<path fill="#3c3564" opacity="1.00" d=" M 101.00 129.07 C 106.73 130.25 111.38 134.30 117.11 135.44 C 117.01 136.73 116.34 137.22 115.10 136.90 C 110.46 135.42 106.06 133.23 101.87 130.77 C 101.65 130.35 101.22 129.50 101.00 129.07 Z" />
<path fill="#3c3564" opacity="1.00" d=" M 156.21 204.31 C 158.32 201.97 159.73 198.42 163.32 198.16 C 157.94 207.03 149.67 213.61 143.61 221.93 C 145.00 223.63 145.87 226.12 148.08 226.90 C 152.39 227.33 156.73 226.93 161.06 227.00 C 160.01 224.32 158.85 221.24 160.48 218.52 C 162.46 214.55 167.27 213.75 171.24 213.28 C 173.00 215.03 175.10 216.59 176.12 218.94 C 177.22 221.22 176.91 223.84 177.10 226.29 C 181.01 225.67 184.58 222.76 188.64 223.66 C 188.58 219.62 193.06 218.89 196.19 218.86 C 196.11 219.49 195.95 220.76 195.87 221.40 C 194.34 221.47 192.83 221.69 191.32 221.96 C 190.95 222.56 190.19 223.76 189.81 224.35 C 190.08 232.26 189.97 240.17 190.37 248.08 C 190.49 255.04 189.91 262.00 190.30 268.96 C 189.74 268.78 188.64 268.43 188.09 268.26 C 187.84 253.84 188.27 239.39 188.02 224.96 C 186.73 225.41 185.44 225.85 184.16 226.28 C 182.87 225.50 181.77 225.70 180.87 226.87 C 179.57 227.82 177.43 228.20 177.27 230.11 C 175.93 235.71 174.84 241.46 172.65 246.80 C 172.30 247.04 171.61 247.51 171.26 247.75 C 172.10 240.95 174.02 234.26 175.97 227.68 C 174.80 228.40 173.65 229.15 172.51 229.92 C 171.36 229.98 170.21 230.05 169.07 230.11 C 168.89 236.07 169.08 242.04 168.76 247.99 C 169.38 247.93 170.63 247.82 171.26 247.76 C 171.64 248.08 172.42 248.72 172.80 249.04 C 171.96 250.60 169.72 249.85 168.27 250.33 C 168.55 259.90 166.79 269.93 170.00 279.15 C 171.66 282.90 167.90 287.02 163.99 286.10 C 161.04 286.34 160.35 282.92 159.84 280.73 C 160.11 280.33 160.66 279.52 160.94 279.12 C 161.82 277.83 162.51 276.44 162.94 274.95 C 163.73 275.82 164.36 278.33 165.95 277.00 C 166.46 264.34 165.28 251.61 166.78 238.99 C 167.01 234.11 167.75 229.27 168.27 224.41 C 168.84 224.02 169.99 223.23 170.56 222.84 C 168.89 222.16 167.07 221.57 165.27 222.13 C 163.47 223.87 163.37 226.65 163.11 229.00 C 162.94 235.31 163.07 241.62 163.00 247.92 C 162.31 248.74 161.63 249.56 160.95 250.38 C 149.28 249.97 137.57 249.41 126.06 247.33 C 125.92 257.37 125.78 267.43 126.01 277.47 C 127.50 281.81 121.26 284.56 118.36 281.61 C 115.66 280.15 115.97 276.93 115.89 274.32 C 116.40 273.96 117.41 273.23 117.92 272.86 C 118.03 271.03 118.18 269.19 118.50 267.39 C 121.74 262.52 120.00 256.22 119.93 250.75 C 119.87 249.61 119.83 248.47 119.82 247.34 C 119.83 246.83 119.86 245.82 119.87 245.31 C 120.03 238.62 121.90 231.92 120.81 225.24 C 119.20 223.72 117.00 223.07 115.12 221.97 C 114.82 221.74 114.21 221.30 113.91 221.07 C 114.24 220.72 114.90 220.00 115.23 219.64 C 116.45 220.15 117.67 220.67 118.89 221.19 C 119.96 217.60 122.21 214.07 126.00 212.95 C 128.63 212.69 131.53 214.17 132.30 216.83 C 133.67 219.60 132.31 222.54 131.20 225.12 C 134.51 224.29 138.04 222.14 141.40 224.00 C 137.46 226.71 132.51 226.86 128.05 228.17 C 128.30 227.50 128.81 226.14 129.06 225.46 C 128.21 226.49 126.79 227.37 126.99 228.92 C 126.78 234.39 127.33 239.95 125.96 245.32 C 130.25 246.18 134.66 246.34 139.00 246.88 C 146.36 247.15 153.62 248.56 161.00 248.57 C 161.00 242.06 161.03 235.56 161.01 229.07 C 154.86 228.79 146.78 231.29 142.81 225.02 C 140.16 221.38 143.58 217.85 146.19 215.49 C 149.66 211.88 152.91 208.07 156.21 204.31 M 121.52 222.09 C 124.40 220.24 128.34 220.60 129.77 223.99 C 130.95 221.25 131.81 217.14 128.64 215.42 C 124.53 213.69 121.40 218.44 121.52 222.09 M 161.91 222.03 C 163.49 221.05 164.99 219.56 167.02 219.81 C 169.08 219.70 172.30 220.31 172.10 223.02 C 172.86 225.31 170.26 226.02 169.71 227.87 C 171.09 227.52 172.45 227.13 173.82 226.74 C 175.53 223.26 174.65 218.91 171.64 216.43 C 167.68 214.67 161.70 217.33 161.91 222.03 M 123.67 222.94 C 122.41 230.18 123.34 237.61 122.88 244.91 C 121.27 250.47 122.29 256.32 121.94 262.01 C 121.69 264.30 121.45 266.59 121.53 268.90 C 120.92 270.14 120.37 271.43 120.58 272.85 C 121.24 272.90 122.54 273.00 123.20 273.05 C 122.29 264.00 124.27 255.01 123.92 245.97 C 123.73 239.60 124.70 233.30 125.11 226.96 C 125.80 225.64 126.66 224.40 127.23 223.02 C 126.34 223.00 124.56 222.96 123.67 222.94 M 117.77 275.10 C 118.18 276.72 118.63 278.34 119.12 279.94 C 120.72 280.58 122.41 281.00 124.00 280.05 C 123.99 278.82 123.98 277.59 123.98 276.36 C 121.86 276.23 119.78 275.75 117.77 275.10 M 166.02 279.05 L 165.55 280.11 L 165.22 280.21 C 164.68 280.45 163.58 280.93 163.03 281.17 C 163.04 281.90 163.06 283.37 163.07 284.11 C 165.67 284.39 168.29 283.15 168.33 280.23 C 167.76 279.94 166.60 279.35 166.02 279.05 Z" />
</g>
<g id="#adaae2ff">
<path fill="#adaae2" opacity="1.00" d=" M 183.34 134.07 C 186.42 132.63 183.46 137.35 183.34 134.07 Z" />
</g>
<g id="#453f7bff">
<path fill="#453f7b" opacity="1.00" d=" M 89.77 142.18 C 93.33 136.54 100.95 137.74 106.58 138.45 C 110.00 139.97 115.05 141.05 116.06 145.17 C 114.43 144.91 113.11 143.90 111.70 143.12 C 113.73 145.25 116.05 147.10 117.85 149.44 C 119.71 151.03 116.10 151.66 115.82 150.00 C 115.18 149.19 114.54 148.39 113.89 147.59 L 113.67 147.31 L 113.38 147.12 C 112.15 146.24 110.87 145.44 109.55 144.72 C 105.01 141.92 99.43 141.38 94.27 142.36 C 92.79 142.64 91.80 143.77 91.23 145.11 C 90.39 144.34 90.12 143.22 89.77 142.18 M 98.34 139.27 C 98.36 140.68 100.86 140.53 101.66 139.79 C 101.64 138.37 99.14 138.54 98.34 139.27 M 104.16 140.08 C 104.16 143.34 107.29 138.71 104.16 140.08 M 107.40 141.10 C 107.53 144.37 110.47 139.62 107.40 141.10 M 110.19 142.28 C 110.71 142.77 110.71 142.77 110.19 142.28 Z" />
</g>
<g id="#8985bdff">
<path fill="#8985bd" opacity="1.00" d=" M 170.19 138.18 C 173.47 138.52 168.52 141.12 170.19 138.18 Z" />
</g>
<g id="#817eb1ff">
<path fill="#817eb1" opacity="1.00" d=" M 98.34 139.27 C 99.14 138.54 101.64 138.37 101.66 139.79 C 100.86 140.53 98.36 140.68 98.34 139.27 Z" />
</g>
<g id="#62567aff">
<path fill="#62567a" opacity="1.00" d=" M 160.84 143.75 C 163.28 141.64 166.14 140.11 169.07 138.82 C 169.09 141.21 168.08 143.78 165.94 144.99 C 164.15 145.08 162.50 144.27 160.84 143.75 Z" />
</g>
<g id="#b0aadbff">
<path fill="#b0aadb" opacity="1.00" d=" M 104.16 140.08 C 107.29 138.71 104.16 143.34 104.16 140.08 Z" />
</g>
<g id="#4f4e69ff">
<path fill="#4f4e69" opacity="1.00" d=" M 173.91 139.87 C 178.40 141.05 180.27 145.81 181.50 149.81 C 181.20 152.74 180.35 155.57 179.70 158.43 C 178.88 159.79 178.09 161.17 177.17 162.46 C 176.64 162.38 175.59 162.20 175.06 162.11 C 175.16 161.65 175.38 160.74 175.49 160.28 C 175.90 159.74 176.74 158.66 177.16 158.12 C 178.06 154.18 178.04 150.04 177.27 146.08 C 176.58 144.39 175.45 142.87 173.59 142.40 C 173.67 141.77 173.83 140.51 173.91 139.87 Z" />
</g>
<g id="#aaa8daff">
<path fill="#aaa8da" opacity="1.00" d=" M 107.40 141.10 C 110.47 139.62 107.53 144.37 107.40 141.10 Z" />
</g>
<g id="#d9d7ffff">
<path fill="#d9d7ff" opacity="1.00" d=" M 110.19 142.28 C 110.71 142.77 110.71 142.77 110.19 142.28 Z" />
</g>
<g id="#8a6e9cff">
<path fill="#8a6e9c" opacity="1.00" d=" M 170.18 143.30 C 171.09 145.39 172.79 147.85 174.89 145.10 C 175.69 145.41 176.48 145.74 177.27 146.08 C 178.04 150.04 178.06 154.18 177.16 158.12 C 175.72 157.28 174.46 159.10 175.49 160.28 C 175.38 160.74 175.16 161.65 175.06 162.11 C 175.59 162.20 176.64 162.38 177.17 162.46 C 175.99 164.20 173.81 164.39 171.99 165.03 C 173.43 165.53 175.15 166.62 176.62 165.58 C 178.48 163.66 179.60 161.10 179.70 158.43 C 180.35 155.57 181.20 152.74 181.50 149.81 C 182.49 155.48 182.75 162.16 178.67 166.75 C 177.08 168.70 174.37 168.07 172.18 168.14 C 171.52 167.37 170.86 166.62 170.22 165.84 C 172.60 163.02 169.25 160.37 168.68 157.58 C 168.17 154.21 168.43 150.77 168.07 147.39 C 169.08 147.35 171.11 147.29 172.12 147.26 C 171.50 146.81 170.27 145.90 169.65 145.44 C 169.82 144.73 170.00 144.01 170.18 143.30 M 173.11 155.02 C 174.39 155.02 175.68 155.01 176.97 155.01 C 176.98 153.12 176.98 151.23 176.98 149.34 C 176.39 148.80 175.21 147.72 174.62 147.19 C 171.98 149.03 173.08 152.32 173.11 155.02 M 172.63 161.32 C 172.92 160.49 173.21 159.65 173.49 158.82 C 170.00 156.67 170.60 152.24 170.74 148.74 C 169.81 153.00 169.40 157.88 172.63 161.32 Z" />
</g>
<g id="#585573ff">
<path fill="#585573" opacity="1.00" d=" M 101.15 149.03 C 102.27 145.57 106.13 143.96 109.55 144.72 C 110.87 145.44 112.15 146.24 113.38 147.12 L 113.62 147.37 L 113.89 147.59 C 114.54 148.39 115.18 149.19 115.82 150.00 L 115.09 150.22 C 118.83 155.56 120.91 163.72 116.19 169.10 C 115.12 170.45 114.18 172.77 112.03 171.66 C 108.23 169.41 104.62 165.97 103.69 161.48 C 102.37 157.46 100.23 153.39 101.15 149.03 M 104.06 148.73 C 105.01 149.43 107.04 148.36 106.54 147.12 C 105.60 146.28 103.54 147.50 104.06 148.73 M 108.62 146.75 C 109.30 148.21 110.09 149.61 110.96 150.97 C 110.25 151.04 108.82 151.18 108.11 151.25 L 108.06 152.15 C 107.84 154.19 107.57 156.44 108.71 158.28 C 109.44 159.95 111.68 159.50 113.09 159.26 C 113.63 159.16 114.70 158.98 115.24 158.89 L 114.59 158.17 L 115.18 157.27 C 115.04 156.69 114.76 155.54 114.62 154.96 C 114.40 154.35 113.97 153.13 113.76 152.52 L 113.82 152.23 C 112.74 149.88 111.01 147.83 108.62 146.75 M 107.71 159.42 C 107.31 157.18 106.98 154.94 106.62 152.71 C 104.55 154.38 105.79 158.14 107.71 159.42 M 114.42 160.26 C 113.61 161.86 113.73 163.97 114.31 165.62 C 115.56 164.81 115.97 160.88 114.42 160.26 M 110.48 162.27 C 110.68 163.61 111.39 163.80 112.59 162.86 C 112.39 161.52 111.68 161.32 110.48 162.27 M 108.36 164.38 C 108.53 165.72 110.76 166.80 111.92 165.91 C 112.16 164.29 109.49 163.97 108.36 164.38 Z" />
</g>
<g id="#8a7999ff">
<path fill="#8a7999" opacity="1.00" d=" M 108.62 146.75 C 111.01 147.83 112.74 149.88 113.82 152.23 L 113.50 152.20 C 113.57 152.28 113.70 152.44 113.76 152.52 C 113.97 153.13 114.40 154.35 114.62 154.96 C 113.78 155.83 113.46 157.36 114.59 158.17 L 115.24 158.89 C 114.70 158.98 113.63 159.16 113.09 159.26 C 113.05 157.63 113.01 156.02 112.97 154.40 C 112.17 153.64 111.38 152.88 110.60 152.12 C 109.96 152.13 108.69 152.14 108.06 152.15 L 108.11 151.25 C 108.82 151.18 110.25 151.04 110.96 150.97 C 110.09 149.61 109.30 148.21 108.62 146.75 Z" />
</g>
<g id="#9e9dc5ff">
<path fill="#9e9dc5" opacity="1.00" d=" M 113.38 147.12 L 113.67 147.31 L 113.89 147.59 L 113.62 147.37 L 113.38 147.12 Z" />
</g>
<g id="#55536bff">
<path fill="#55536b" opacity="1.00" d=" M 166.13 147.04 C 166.62 147.13 167.58 147.30 168.07 147.39 C 168.43 150.77 168.17 154.21 168.68 157.58 C 169.25 160.37 172.60 163.02 170.22 165.84 C 166.18 160.65 163.95 153.46 166.13 147.04 Z" />
</g>
<g id="#d3bde1ff">
<path fill="#d3bde1" opacity="1.00" d=" M 113.50 152.20 L 113.82 152.23 L 113.76 152.52 C 113.70 152.44 113.57 152.28 113.50 152.20 Z" />
</g>
<g id="#bdb4e9ff">
<path fill="#bdb4e9" opacity="1.00" d=" M 223.28 152.26 L 223.52 152.45 L 223.77 152.60 L 223.49 152.48 L 223.28 152.26 Z" />
</g>
<g id="#fdf4ffff">
<path fill="#fdf4ff" opacity="1.00" d=" M 114.59 158.17 C 113.46 157.36 113.78 155.83 114.62 154.96 C 114.76 155.54 115.04 156.69 115.18 157.27 L 114.59 158.17 Z" />
</g>
<g id="#a66481ff">
<path fill="#a66481" opacity="1.00" d=" M 204.92 161.20 C 208.04 157.61 213.06 155.84 217.67 157.33 C 219.25 157.85 218.99 159.58 219.24 160.90 C 218.14 161.33 217.04 161.75 215.95 162.17 C 216.19 161.09 216.45 160.02 216.72 158.95 C 214.55 159.01 212.37 159.01 210.23 159.36 C 210.89 161.39 212.52 162.98 213.20 165.03 C 212.75 166.06 212.30 167.09 211.87 168.13 C 211.11 168.05 209.58 167.91 208.82 167.83 C 209.58 166.89 210.35 165.96 211.06 164.97 C 210.52 163.18 208.97 162.14 207.32 161.50 C 207.58 163.72 206.82 164.68 205.03 164.37 C 205.00 163.58 204.95 162.00 204.92 161.20 Z" />
</g>
<g id="#bbb5cfff">
<path fill="#bbb5cf" opacity="1.00" d=" M 175.49 160.28 C 174.46 159.10 175.72 157.28 177.16 158.12 C 176.74 158.66 175.90 159.74 175.49 160.28 Z" />
</g>
<g id="#b8b5cbff">
<path fill="#b8b5cb" opacity="1.00" d=" M 114.42 160.26 C 115.97 160.88 115.56 164.81 114.31 165.62 C 113.73 163.97 113.61 161.86 114.42 160.26 Z" />
</g>
<g id="#9f96b5ff">
<path fill="#9f96b5" opacity="1.00" d=" M 110.48 162.27 C 111.68 161.32 112.39 161.52 112.59 162.86 C 111.39 163.80 110.68 163.61 110.48 162.27 Z" />
</g>
<g id="#b27890ff">
<path fill="#b27890" opacity="1.00" d=" M 177.98 172.15 C 178.51 172.38 179.57 172.84 180.11 173.07 C 180.02 174.46 179.93 175.85 179.82 177.24 C 177.41 176.58 177.94 174.09 177.98 172.15 Z" />
</g>
<g id="#ab6c87ff">
<path fill="#ab6c87" opacity="1.00" d=" M 172.91 173.79 C 175.17 173.16 176.23 176.42 177.33 177.94 C 176.52 178.03 174.89 178.20 174.07 178.28 C 173.44 176.86 172.77 175.39 172.91 173.79 Z" />
</g>
<g id="#aa6d88ff">
<path fill="#aa6d88" opacity="1.00" d=" M 103.95 181.45 C 103.68 178.79 104.37 176.21 106.15 174.18 C 107.83 176.52 106.57 180.41 103.95 181.45 Z" />
</g>
<g id="#a57c8dff">
<path fill="#a57c8d" opacity="1.00" d=" M 108.95 181.19 C 109.15 179.61 107.98 174.10 110.95 175.86 C 110.94 177.79 112.06 181.49 108.95 181.19 Z" />
</g>
<g id="#635578ff">
<path fill="#635578" opacity="1.00" d=" M 200.36 174.93 C 202.65 178.65 204.81 182.46 207.39 186.00 C 205.36 186.07 203.33 186.07 201.30 185.94 C 200.60 184.66 200.07 183.23 199.04 182.17 C 196.94 181.93 194.83 181.98 192.73 181.98 C 195.88 180.35 198.10 177.57 200.36 174.93 Z" />
</g>
<g id="#ad5b7cff">
<path fill="#ad5b7c" opacity="1.00" d=" M 138.00 181.80 C 142.52 179.11 147.40 176.30 152.87 176.60 C 155.36 177.55 155.65 180.67 156.01 182.95 C 155.77 186.99 154.45 192.04 149.95 193.12 L 149.90 191.76 C 151.44 189.96 153.30 188.20 153.76 185.77 C 154.45 183.05 153.52 180.32 152.86 177.70 C 148.02 179.30 143.00 180.80 138.84 183.84 C 137.00 185.28 138.03 188.19 139.66 189.39 C 141.62 191.59 144.71 191.45 147.38 191.78 C 147.68 191.97 148.27 192.35 148.57 192.55 C 143.28 195.36 136.78 191.46 134.97 186.17 C 135.78 184.60 136.26 182.63 138.00 181.80 Z" />
</g>
<g id="#f4a9baff">
<path fill="#f4a9ba" opacity="1.00" d=" M 138.84 183.84 C 143.00 180.80 148.02 179.30 152.86 177.70 C 153.52 180.32 154.45 183.05 153.76 185.77 C 153.30 188.20 151.44 189.96 149.90 191.76 C 149.65 192.01 149.16 192.52 148.92 192.78 L 148.57 192.55 C 148.27 192.35 147.68 191.97 147.38 191.78 C 144.71 191.45 141.62 191.59 139.66 189.39 C 138.03 188.19 137.00 185.28 138.84 183.84 Z" />
</g>
<g id="#f5efd9ff">
<path fill="#f5efd9" opacity="1.00" d=" M 188.09 186.06 C 191.18 184.19 194.94 183.88 198.47 184.07 C 200.10 188.29 202.12 192.36 203.56 196.66 C 205.74 196.91 209.39 196.80 209.15 199.98 C 208.68 206.21 204.67 211.53 201.01 216.34 C 199.60 216.51 198.20 216.72 196.80 216.93 C 198.45 218.07 200.12 219.29 200.92 221.22 C 209.53 237.79 214.95 255.80 218.94 273.99 C 210.39 276.44 201.38 276.26 192.68 278.00 C 192.31 275.26 191.98 272.52 191.70 269.77 C 190.49 269.69 189.28 269.62 188.08 269.55 C 188.63 269.40 189.74 269.11 190.30 268.96 C 189.91 262.00 190.49 255.04 190.37 248.08 C 189.97 240.17 190.08 232.26 189.81 224.35 C 190.19 223.76 190.95 222.56 191.32 221.96 C 192.83 221.69 194.34 221.47 195.87 221.40 C 195.95 220.76 196.11 219.49 196.19 218.86 C 193.06 218.89 188.58 219.62 188.64 223.66 C 184.58 222.76 181.01 225.67 177.10 226.29 C 176.91 223.84 177.22 221.22 176.12 218.94 C 175.10 216.59 173.00 215.03 171.24 213.28 C 167.27 213.75 162.46 214.55 160.48 218.52 C 158.85 221.24 160.01 224.32 161.06 227.00 C 156.73 226.93 152.39 227.33 148.08 226.90 C 145.87 226.12 145.00 223.63 143.61 221.93 C 149.67 213.61 157.94 207.03 163.32 198.16 C 163.47 197.95 163.76 197.53 163.90 197.32 C 172.56 195.11 180.68 191.00 188.09 186.06 Z" />
<path fill="#f5efd9" opacity="1.00" d=" M 95.46 186.09 C 104.53 193.43 115.91 196.70 126.87 200.02 C 128.24 199.99 129.61 199.97 130.98 199.94 C 132.54 201.86 133.85 203.97 134.87 206.23 C 136.34 209.39 138.99 211.78 140.66 214.83 C 142.16 214.81 143.66 214.75 145.16 214.75 L 146.19 215.49 C 143.58 217.85 140.16 221.38 142.81 225.02 C 146.78 231.29 154.86 228.79 161.01 229.07 C 161.03 235.56 161.00 242.06 161.00 248.57 C 153.62 248.56 146.36 247.15 139.00 246.88 C 134.66 246.34 130.25 246.18 125.96 245.32 C 127.33 239.95 126.78 234.39 126.99 228.92 C 126.79 227.37 128.21 226.49 129.06 225.46 C 128.81 226.14 128.30 227.50 128.05 228.17 C 132.51 226.86 137.46 226.71 141.40 224.00 C 138.04 222.14 134.51 224.29 131.20 225.12 C 132.31 222.54 133.67 219.60 132.30 216.83 C 131.53 214.17 128.63 212.69 126.00 212.95 C 122.21 214.07 119.96 217.60 118.89 221.19 C 117.67 220.67 116.45 220.15 115.23 219.64 C 113.83 218.98 112.44 218.31 111.07 217.60 C 106.42 215.30 102.79 211.57 98.87 208.28 C 96.31 206.20 95.58 202.80 93.99 200.05 C 91.52 195.61 92.86 190.16 95.46 186.09 Z" />
<path fill="#f5efd9" opacity="1.00" d=" M 90.60 204.08 C 91.27 203.30 91.93 202.53 92.60 201.77 C 94.10 204.71 95.27 208.01 97.88 210.19 C 100.56 212.56 103.34 214.83 106.13 217.08 C 105.15 219.46 104.34 221.91 103.88 224.44 C 101.90 231.76 99.70 239.03 98.74 246.58 C 98.38 247.94 97.99 249.31 97.61 250.68 C 95.94 250.38 94.27 250.11 92.61 249.85 C 92.65 250.41 92.75 251.53 92.80 252.09 C 86.44 252.82 79.77 252.30 74.27 248.72 C 72.25 246.06 69.62 243.73 68.57 240.46 C 67.67 237.75 66.96 234.97 66.41 232.17 C 65.44 227.34 67.42 222.61 68.24 217.91 C 76.72 220.45 86.42 217.16 92.16 210.54 C 94.95 214.07 97.37 217.98 98.64 222.32 C 99.26 224.05 98.66 226.61 100.82 227.35 C 101.65 219.67 96.97 212.78 91.93 207.48 C 92.14 206.99 92.57 206.00 92.79 205.51 C 92.06 205.03 91.33 204.55 90.60 204.08 Z" />
</g>
<g id="#9c6f8bff">
<path fill="#9c6f8b" opacity="1.00" d=" M 71.10 196.01 C 73.06 196.52 75.03 196.96 77.01 197.38 C 77.14 198.01 77.39 199.28 77.52 199.91 C 74.88 199.25 72.20 198.78 69.52 198.30 L 68.34 197.70 C 69.03 197.28 70.41 196.43 71.10 196.01 Z" />
</g>
<g id="#f6f0dcff">
<path fill="#f6f0dc" opacity="1.00" d=" M 79.53 211.58 C 82.57 209.60 86.41 208.88 88.93 206.17 C 88.47 208.05 89.62 210.48 87.90 211.88 C 82.86 216.31 75.57 217.00 69.19 215.91 C 66.88 214.76 67.84 211.91 67.71 209.87 C 71.16 212.25 75.56 212.39 79.53 211.58 Z" />
</g>
<g id="#93858fff">
<path fill="#93858f" opacity="1.00" d=" M 121.52 222.09 C 121.40 218.44 124.53 213.69 128.64 215.42 C 131.81 217.14 130.95 221.25 129.77 223.99 C 128.34 220.60 124.40 220.24 121.52 222.09 Z" />
</g>
<g id="#93848eff">
<path fill="#93848e" opacity="1.00" d=" M 161.91 222.03 C 161.70 217.33 167.68 214.67 171.64 216.43 C 174.65 218.91 175.53 223.26 173.82 226.74 C 172.45 227.13 171.09 227.52 169.71 227.87 C 170.26 226.02 172.86 225.31 172.10 223.02 C 172.30 220.31 169.08 219.70 167.02 219.81 C 164.99 219.56 163.49 221.05 161.91 222.03 Z" />
</g>
<g id="#56464eff">
<path fill="#56464e" opacity="1.00" d=" M 108.39 218.57 C 109.06 218.33 110.40 217.84 111.07 217.60 C 112.44 218.31 113.83 218.98 115.23 219.64 C 114.90 220.00 114.24 220.72 113.91 221.07 C 114.21 221.30 114.82 221.74 115.12 221.97 C 114.66 227.42 112.70 232.60 111.99 238.00 C 111.46 242.30 116.07 245.13 119.87 245.31 C 119.86 245.82 119.83 246.83 119.82 247.34 C 115.53 247.12 110.53 244.99 110.09 240.13 C 109.85 233.71 112.13 227.53 113.08 221.23 C 111.52 220.34 109.95 219.45 108.39 218.57 Z" />
</g>
<g id="#f8c455ff">
<path fill="#f8c455" opacity="1.00" d=" M 106.54 222.49 C 106.79 221.02 107.13 219.52 108.39 218.57 C 109.95 219.45 111.52 220.34 113.08 221.23 C 112.13 227.53 109.85 233.71 110.09 240.13 C 110.53 244.99 115.53 247.12 119.82 247.34 C 119.83 248.47 119.87 249.61 119.93 250.75 C 119.72 250.98 119.30 251.46 119.10 251.69 C 118.28 252.62 117.20 253.54 117.38 254.92 C 117.10 260.25 117.89 265.65 116.91 270.94 C 116.91 272.30 115.51 273.63 114.13 273.07 C 109.18 271.70 104.44 269.51 100.03 266.89 C 98.36 266.29 98.74 264.41 98.83 263.03 C 100.65 251.87 103.12 240.85 105.90 229.90 C 106.63 227.49 106.71 224.98 106.54 222.49 Z" />
<path fill="#f8c455" opacity="1.00" d=" M 184.16 226.28 C 185.44 225.85 186.73 225.41 188.02 224.96 C 188.27 239.39 187.84 253.84 188.09 268.26 C 188.64 268.43 189.74 268.78 190.30 268.96 C 189.74 269.11 188.63 269.40 188.08 269.55 C 189.28 269.62 190.49 269.69 191.70 269.77 C 191.98 272.52 192.31 275.26 192.68 278.00 C 185.27 279.61 177.49 280.61 170.00 279.15 C 166.79 269.93 168.55 259.90 168.27 250.33 C 169.72 249.85 171.96 250.60 172.80 249.04 C 172.42 248.72 171.64 248.08 171.26 247.76 L 171.26 247.75 C 171.61 247.51 172.30 247.04 172.65 246.80 C 174.84 241.46 175.93 235.71 177.27 230.11 C 177.43 228.20 179.57 227.82 180.87 226.87 C 182.10 227.45 183.19 227.25 184.16 226.28 Z" />
</g>
<g id="#f6efdaff">
<path fill="#f6efda" opacity="1.00" d=" M 115.12 221.97 C 117.00 223.07 119.20 223.72 120.81 225.24 C 121.90 231.92 120.03 238.62 119.87 245.31 C 116.07 245.13 111.46 242.30 111.99 238.00 C 112.70 232.60 114.66 227.42 115.12 221.97 Z" />
</g>
<g id="#f6f0e3ff">
<path fill="#f6f0e3" opacity="1.00" d=" M 165.27 222.13 C 167.07 221.57 168.89 222.16 170.56 222.84 C 169.99 223.23 168.84 224.02 168.27 224.41 C 167.75 229.27 167.01 234.11 166.78 238.99 C 165.28 251.61 166.46 264.34 165.95 277.00 C 164.36 278.33 163.73 275.82 162.94 274.95 C 163.04 265.94 162.98 256.93 163.00 247.92 C 163.07 241.62 162.94 235.31 163.11 229.00 C 163.37 226.65 163.47 223.87 165.27 222.13 Z" />
</g>
<g id="#e1bc7fff">
<path fill="#e1bc7f" opacity="1.00" d=" M 105.23 226.41 C 105.65 225.09 106.12 223.80 106.54 222.49 C 106.71 224.98 106.63 227.49 105.90 229.90 C 103.12 240.85 100.65 251.87 98.83 263.03 C 98.74 264.41 98.36 266.29 100.03 266.89 C 104.44 269.51 109.18 271.70 114.13 273.07 C 115.51 273.63 116.91 272.30 116.91 270.94 C 117.89 265.65 117.10 260.25 117.38 254.92 C 117.20 253.54 118.28 252.62 119.10 251.69 C 118.83 256.92 119.34 262.19 118.50 267.39 C 118.18 269.19 118.03 271.03 117.92 272.86 C 117.41 273.23 116.40 273.96 115.89 274.32 C 112.56 274.92 109.39 272.75 106.34 271.61 C 103.11 269.83 98.92 269.03 97.03 265.55 C 97.72 263.38 98.06 261.13 98.24 258.88 C 100.32 248.00 103.00 237.26 105.23 226.41 Z" />
</g>
<g id="#54454dff">
<path fill="#54454d" opacity="1.00" d=" M 103.88 224.44 C 104.21 224.94 104.89 225.92 105.23 226.41 C 103.00 237.26 100.32 248.00 98.24 258.88 C 97.49 254.75 98.94 250.70 98.74 246.58 C 99.70 239.03 101.90 231.76 103.88 224.44 Z" />
</g>
<g id="#5d4531ff">
<path fill="#5d4531" opacity="1.00" d=" M 180.87 226.87 C 181.77 225.70 182.87 225.50 184.16 226.28 C 183.19 227.25 182.10 227.45 180.87 226.87 Z" />
</g>
<g id="#f8efe3ff">
<path fill="#f8efe3" opacity="1.00" d=" M 172.51 229.92 C 173.65 229.15 174.80 228.40 175.97 227.68 C 174.02 234.26 172.10 240.95 171.26 247.75 L 171.26 247.76 C 170.63 247.82 169.38 247.93 168.76 247.99 C 169.08 242.04 168.89 236.07 169.07 230.11 C 170.21 230.05 171.36 229.98 172.51 229.92 Z" />
</g>
<g id="#f8c456ff">
<path fill="#f8c456" opacity="1.00" d=" M 126.06 247.33 C 137.57 249.41 149.28 249.97 160.95 250.38 C 160.68 259.95 161.17 269.54 160.94 279.12 C 160.66 279.52 160.11 280.33 159.84 280.73 C 154.23 280.04 148.55 280.78 142.94 279.90 C 137.15 280.23 131.63 278.49 126.01 277.47 C 125.78 267.43 125.92 257.37 126.06 247.33 Z" />
</g>
<g id="#453535ff">
<path fill="#453535" opacity="1.00" d=" M 160.95 250.38 C 161.63 249.56 162.31 248.74 163.00 247.92 C 162.98 256.93 163.04 265.94 162.94 274.95 C 162.51 276.44 161.82 277.83 160.94 279.12 C 161.17 269.54 160.68 259.95 160.95 250.38 Z" />
</g>
<g id="#4a3432ff">
<path fill="#4a3432" opacity="1.00" d=" M 119.10 251.69 C 119.30 251.46 119.72 250.98 119.93 250.75 C 120.00 256.22 121.74 262.52 118.50 267.39 C 119.34 262.19 118.83 256.92 119.10 251.69 Z" />
</g>
<g id="#958592ff">
<path fill="#958592" opacity="1.00" d=" M 117.77 275.10 C 119.78 275.75 121.86 276.23 123.98 276.36 C 123.98 277.59 123.99 278.82 124.00 280.05 C 122.41 281.00 120.72 280.58 119.12 279.94 C 118.63 278.34 118.18 276.72 117.77 275.10 Z" />
</g>
<g id="#9489a6ff">
<path fill="#9489a6" opacity="1.00" d=" M 166.02 279.05 C 166.60 279.35 167.76 279.94 168.33 280.23 C 168.29 283.15 165.67 284.39 163.07 284.11 C 163.06 283.37 163.04 281.90 163.03 281.17 C 163.58 280.93 164.68 280.45 165.22 280.21 L 165.34 280.58 C 165.39 280.46 165.50 280.23 165.55 280.11 L 166.02 279.05 Z" />
</g>
<g id="#cec4ddff">
<path fill="#cec4dd" opacity="1.00" d=" M 165.22 280.21 L 165.55 280.11 C 165.50 280.23 165.39 280.46 165.34 280.58 L 165.22 280.21 Z" />
</g>
</svg>
