<svg width="28" height="28" viewBox="0 0 28 28" fill="none" xmlns="http://www.w3.org/2000/svg">
  <path d="M9.828 22.29h14.836c.527 0 .95-.411.95-.938 0-.54-.423-.95-.95-.95H9.828a.93.93 0 00-.95.95c0 .527.411.937.95.937zM3.16 22.512h2.004c.645 0 1.172-.528 1.172-1.16 0-.657-.527-1.172-1.172-1.172H3.16c-.644 0-1.16.515-1.16 1.172 0 .632.516 1.16 1.16 1.16zM9.828 15.21h14.836c.527 0 .95-.42.95-.948a.935.935 0 00-.95-.938H9.828c-.539 0-.95.41-.95.938 0 .527.411.949.95.949zM3.16 15.434h2.004c.645 0 1.172-.528 1.172-1.172 0-.645-.527-1.16-1.172-1.16H3.16c-.644 0-1.16.515-1.16 1.16 0 .644.516 1.172 1.16 1.172zM9.828 8.121h14.836c.527 0 .95-.41.95-.937 0-.54-.423-.95-.95-.95H9.828a.93.93 0 00-.95.95c0 .527.411.937.95.937zM3.16 8.344h2.004c.645 0 1.172-.528 1.172-1.16 0-.657-.527-1.172-1.172-1.172H3.16c-.644 0-1.16.515-1.16 1.172 0 .632.516 1.16 1.16 1.16z" fill="#888"/>
</svg>