<svg xmlns="http://www.w3.org/2000/svg" width="32" height="32" viewBox="0 0 32 32" fill="none">
  <path fill="#888"
    d="M4.81,27.81c-2.7,0 -4.06,-1.34 -4.06,-4.01v-15.79c0,-2.68 1.36,-4.01 4.06,-4.01h22.37c2.72,0 4.06,1.34 4.06,4.01v15.79c0,2.66 -1.34,4.01 -4.06,4.01zM27.16,25.72c1.28,0 2,-0.68 2,-2.03v-15.58c0,-1.34 -0.72,-2.03 -2,-2.03h-22.32c-1.3,0 -2.01,0.69 -2.01,2.03v15.58c0,1.35 0.71,2.03 2.01,2.03zM10.6,25.72v-19.64h2.03v19.64zM8.12,10.88h-2.78c-0.39,0 -0.72,-0.35 -0.72,-0.72c0,-0.39 0.33,-0.73 0.72,-0.73h2.78c0.39,0 0.74,0.34 0.74,0.73c0,0.37 -0.35,0.72 -0.74,0.72zM8.12,14.23h-2.78c-0.39,0 -0.72,-0.35 -0.72,-0.74c0,-0.39 0.33,-0.71 0.72,-0.71h2.78c0.39,0 0.74,0.32 0.74,0.71c0,0.39 -0.35,0.74 -0.74,0.74zM8.12,17.56h-2.78c-0.39,0 -0.72,-0.32 -0.72,-0.71c0,-0.38 0.33,-0.72 0.72,-0.72h2.78c0.39,0 0.74,0.34 0.74,0.72c0,0.39 -0.35,0.71 -0.74,0.71z">
  </path>
</svg>