<svg width="29" height="29" viewBox="0 0 29 29" fill="none" xmlns="http://www.w3.org/2000/svg">
<g>
<path d="M13.9629 25.9355C20.502 25.9355 25.916 20.5098 25.916 13.9824C25.916 7.44336 20.4903 2.0293 13.9512 2.0293C7.42383 2.0293 2.00977 7.44336 2.00977 13.9824C2.00977 20.5098 7.43555 25.9355 13.9629 25.9355ZM13.9629 23.9434C8.43165 23.9434 4.01368 19.5137 4.01368 13.9824C4.01368 8.45118 8.41993 4.02149 13.9512 4.02149C19.4825 4.02149 23.9239 8.45118 23.9239 13.9824C23.9239 19.5137 19.4942 23.9434 13.9629 23.9434Z" fill="#888"/>
<path d="M8.59571 19.9238H19.3067C19.7754 19.9238 19.9981 19.6074 19.9981 19.1855C19.9981 17.8965 18.0645 14.5684 13.9512 14.5684C9.83789 14.5684 7.9043 17.8965 7.9043 19.1855C7.9043 19.6074 8.12696 19.9238 8.59571 19.9238ZM13.9512 13.6191C15.6153 13.6309 16.9629 12.2012 16.9629 10.3262C16.9629 8.56835 15.6153 7.11523 13.9512 7.11523C12.2871 7.11523 10.9395 8.56835 10.9395 10.3262C10.9395 12.2012 12.2871 13.6074 13.9512 13.6191Z" fill="#888"/>
</g>
</svg>
