<svg width="36" height="36" viewBox="0 0 36 36" fill="none" xmlns="http://www.w3.org/2000/svg">
  <g clip-path="url(#clip0_2124_89411)">
    <path
      d="M7.24609 25.4599H25.668C27.6719 25.4599 29.3594 25.2724 30.5547 24.0771C31.75 22.8818 31.9258 21.2177 31.9258 19.2138V15.8506C31.9258 13.8467 31.75 12.1826 30.5547 10.9873C29.3594 9.79199 27.6719 9.60449 25.668 9.60449H7.22266C5.25391 9.60449 3.56641 9.79199 2.37109 10.9873C1.17578 12.1826 1 13.8584 1 15.8154V19.2138C1 21.2177 1.17578 22.8818 2.37109 24.0771C3.56641 25.2724 5.25391 25.4599 7.24609 25.4599ZM6.92969 23.5732C5.72266 23.5732 4.45703 23.4091 3.74219 22.706C3.03906 21.9912 2.88672 20.7373 2.88672 19.5302V15.5576C2.88672 14.3272 3.03906 13.0732 3.74219 12.3584C4.45703 11.6436 5.73438 11.4912 6.96484 11.4912H25.9961C27.2031 11.4912 28.4688 11.6553 29.1719 12.3584C29.8867 13.0732 30.0391 14.3154 30.0391 15.5225V19.5302C30.0391 20.7373 29.8867 21.9912 29.1719 22.706C28.4688 23.4091 27.2031 23.5732 25.9961 23.5732H6.92969ZM33.5195 20.5615C34.4453 20.5029 35.6875 19.3193 35.6875 17.5264C35.6875 15.7451 34.4453 14.5615 33.5195 14.5029V20.5615Z"
      fill="#444" fill-opacity="0.85" />
    <path
      d="M6.30859 22.214H26.6172C27.4258 22.214 27.8945 22.0968 28.2227 21.7687C28.5391 21.4406 28.668 20.9718 28.668 20.1632V14.9015C28.668 14.0929 28.5391 13.6241 28.2227 13.296C27.8945 12.9679 27.4141 12.8507 26.6172 12.8507H6.34375C5.5 12.8507 5.01953 12.9679 4.70312 13.296C4.375 13.6241 4.25781 14.1046 4.25781 14.9249V20.1632C4.25781 20.9718 4.375 21.4406 4.70312 21.7687C5.03125 22.0968 5.51172 22.214 6.30859 22.214Z"
      fill="#0f0" fill-opacity="0.85" />
    <path
      d="M9.98828 18.4171C9.98828 19.5889 10.9492 20.5264 12.1328 20.5264H13.7969L12.4844 24.0655C11.582 26.503 14.6406 28.1788 16.2461 26.1749L22.6797 18.0889C23.0195 17.6671 23.2188 17.1749 23.2188 16.6475C23.2188 15.4757 22.2578 14.5382 21.0742 14.5382H19.4102L20.7227 10.9991C21.625 8.56159 18.5664 6.8858 16.9609 8.88971L10.5273 16.9757C10.1875 17.3975 9.98828 17.8897 9.98828 18.4171Z"
      fill="#444" />
    <path
      d="M11.582 18.4171C11.582 18.71 11.8164 18.921 12.1211 18.921H16.0938L13.9727 24.6163C13.7031 25.3663 14.5 25.7764 14.9805 25.1788L21.4023 17.1046C21.5195 16.9522 21.6016 16.7999 21.6016 16.6475C21.6016 16.3546 21.3672 16.1436 21.0625 16.1436H17.0898L19.2109 10.4483C19.4805 9.69832 18.6836 9.28817 18.2031 9.88582L11.7812 17.9483C11.6523 18.1124 11.582 18.2647 11.582 18.4171Z"
      fill="white" fill-opacity="0.85" />
  </g>
  <defs>
    <clipPath id="clip0_2124_89411">
      <rect width="34.6875" height="19.0646" fill="white" transform="translate(1 8)" />
    </clipPath>
  </defs>
</svg>